<?xml version="1.0" encoding="UTF-8" standalone="no"?>
<!-- Created with Inkscape (http://www.inkscape.org/) -->

<svg
   width="1024.0px"
   height="1024.0px"
   viewBox="0 0 1024.0 1024.0"
   version="1.1"
   id="SVGRoot"
   sodipodi:docname="logo.svg"
   xml:space="preserve"
   inkscape:version="1.2.2 (b0a8486541, 2022-12-01)"
   inkscape:export-filename="sqliste.png"
   inkscape:export-xdpi="18.75"
   inkscape:export-ydpi="18.75"
   xmlns:inkscape="http://www.inkscape.org/namespaces/inkscape"
   xmlns:sodipodi="http://sodipodi.sourceforge.net/DTD/sodipodi-0.dtd"
   xmlns="http://www.w3.org/2000/svg"
   xmlns:svg="http://www.w3.org/2000/svg"><sodipodi:namedview
     id="namedview3676"
     pagecolor="#ffffff"
     bordercolor="#000000"
     borderopacity="0.25"
     inkscape:showpageshadow="2"
     inkscape:pageopacity="0.0"
     inkscape:pagecheckerboard="0"
     inkscape:deskcolor="#d1d1d1"
     inkscape:document-units="px"
     showgrid="true"
     inkscape:zoom="0.74118967"
     inkscape:cx="612.52877"
     inkscape:cy="383.84237"
     inkscape:window-width="1920"
     inkscape:window-height="1011"
     inkscape:window-x="0"
     inkscape:window-y="32"
     inkscape:window-maximized="1"
     inkscape:current-layer="layer1"><inkscape:grid
       type="xygrid"
       id="grid3682" /></sodipodi:namedview><defs
     id="defs3671" /><g
     inkscape:label="Calque 1"
     inkscape:groupmode="layer"
     id="layer1"><circle
       style="display:inline;fill:#ffffff;stroke-width:1.06597"
       id="path1660"
       cx="816.19"
       cy="552.19299"
       r="202.884" /><g
       id="g3841"
       transform="matrix(0.32066992,0,0,0.44300013,47.334105,316.18754)"
       style="display:inline"><path
         d="m 495.1459,657.42209 v 405.42401 c 3.62243,212.8192 376.00622,384.9824 953.9015,384.9824 577.8953,0 950.0375,-172.1632 953.9014,-384.9824 V 657.42209 Z"
         fill="#1b9bdb"
         id="path3817"
         style="display:inline;stroke-width:2.34202" /><path
         d="m 2402.9488,655.83219 c 0,225.76559 -373.8328,408.83091 -953.9014,408.83091 -580.06872,0 -953.9015,-183.06532 -953.9015,-408.83091 0,-225.76551 373.83278,-408.83093 953.9015,-408.83093 580.0686,0 953.9014,182.83828 953.9014,408.83093 z"
         fill="#ffffff"
         id="path3819"
         style="display:inline;stroke-width:2.34202" /><path
         d="m 495.1459,248.59116 v 359.99836 c 3.62243,212.81925 376.00622,407.69528 953.9015,407.69528 577.8953,0 950.0375,-194.87603 953.9014,-407.69528 V 248.59116 Z"
         fill="#1b9bdb"
         id="path3821"
         style="stroke-width:2.34202" /><path
         d="m 2402.9488,247.00126 c 0,225.76553 -373.8328,408.83093 -953.9014,408.83093 -580.06872,0 -953.9015,-183.0654 -953.9015,-408.83093 0,-225.765521 373.83278,-408.83093 953.9015,-408.83093 580.0686,0 953.9014,182.838279 953.9014,408.83093 z"
         fill="#ffffff"
         id="path3823"
         style="stroke-width:2.34202" /><path
         d="m 495.1459,-160.23977 v 359.99836 c 3.62243,212.81922 376.00622,407.69528 953.9015,407.69528 577.8953,0 950.0375,-194.87606 953.9014,-407.69528 v -359.99836 z"
         fill="#1b9bdb"
         id="path3825"
         style="stroke-width:2.34202" /><path
         d="m 2402.9488,-161.82967 c 0,225.765529 -373.8328,408.83093 -953.9014,408.83093 -580.06872,0 -953.9015,-183.065401 -953.9015,-408.83093 0,-225.76554 373.83278,-408.83095 953.9015,-408.83095 580.0686,0 953.9014,182.83829 953.9014,408.83095 z"
         fill="#3ed6ff"
         id="path3827"
         style="stroke-width:2.34202" /></g><g
       style="display:inline;fill:#ff6600"
       id="g3929"
       transform="matrix(18.034125,0,0,18.034125,599.78004,335.78337)"><path
         id="vector"
         d="M 7.8,12 H 7.05 Z m 8.4,0 h 0.75 z M 12,16.2 v 0.75 z m 2.1729,6.0749 0.1544,0.7339 z m -4.34578,0 -0.15443,0.7339 z M 2.27554,8.03225 1.58122,7.74867 v 0 z M 1.7251,14.1729 0.991173,14.3273 Z M 9.82712,1.7251 9.67269,0.991173 Z m 4.34578,0 0.1544,-0.733926 z m 7.467,6.34504 0.2177,0.71771 z M 2.35887,8.06976 2.14116,8.78747 Z M 21.0312,8.3185 C 21.4944,9.45344 21.75,10.6959 21.75,12 h 1.5 c 0,-1.5017 -0.2947,-2.93648 -0.83,-4.24826 z M 21.75,12 c 0,0.6927 -0.0721,1.3678 -0.209,2.0184 l 1.4678,0.3089 C 23.167,13.5757 23.25,12.7972 23.25,12 Z m -0.209,2.0184 c -0.7921,3.7643 -3.7582,6.7305 -7.5226,7.5226 l 0.3089,1.4678 c 4.3462,-0.9145 7.767,-4.3353 8.6815,-8.6815 z M 14.0184,21.541 C 13.3678,21.6779 12.6927,21.75 12,21.75 v 1.5 c 0.7972,0 1.5757,-0.083 2.3273,-0.2412 z M 12,21.75 c -0.6928,0 -1.3678,-0.0721 -2.01844,-0.209 L 9.67269,23.0088 C 10.4242,23.167 11.2028,23.25 12,23.25 Z M 2.25,12 c 0,-1.3051 0.25601,-2.54851 0.71986,-3.68416 L 1.58122,7.74867 C 1.0451,9.06127 0.75,10.4971 0.75,12 Z m 7.73156,9.541 C 6.21724,20.7489 3.25112,17.7827 2.45903,14.0184 l -1.467857,0.3089 c 0.914537,4.3462 4.335297,7.767 8.681517,8.6815 z M 2.45903,14.0184 C 2.32213,13.3678 2.25,12.6927 2.25,12 h -1.5 c 0,0.7972 0.08303,1.5757 0.241173,2.3273 z M 2.96986,8.31584 C 4.17707,5.36016 6.79381,3.1298 9.98155,2.45903 L 9.67269,0.991173 C 5.99032,1.76602 2.97369,4.33941 1.58122,7.74867 Z M 9.98155,2.45903 C 10.6322,2.32213 11.3072,2.25 12,2.25 v -1.5 c -0.7972,0 -1.5758,0.08303 -2.32731,0.241173 z M 12,2.25 c 0.6927,0 1.3678,0.07213 2.0184,0.20903 L 14.3273,0.991174 C 13.5757,0.833031 12.7972,0.75 12,0.75 Z m 2.0184,0.20903 C 17.2071,3.13 19.8245,5.3615 21.0312,8.3185 L 22.42,7.75174 C 21.0281,4.34096 18.0108,1.76625 14.3273,0.991174 Z m -0.56,-0.50594 c 0.2898,0.90831 1.3631,4.40312 1.8031,7.61511 L 16.7476,9.36461 C 16.289,6.01664 15.1813,2.41835 14.8874,1.49712 Z M 15.2615,9.5682 C 15.3795,10.4292 15.45,11.2568 15.45,12 h 1.5 c 0,-0.8319 -0.0785,-1.731 -0.2024,-2.63539 z m 6.1607,-2.21578 c -1.153,0.3497 -3.3189,0.96398 -5.5537,1.37644 L 16.1407,10.204 C 18.4546,9.7769 20.6809,9.14473 21.8576,8.78785 Z M 15.8685,8.72886 C 14.5129,8.97904 13.1579,9.15 12,9.15 v 1.5 c 1.2874,0 2.743,-0.1881 4.1407,-0.446 z M 15.45,12 c 0,1.1009 -0.1546,2.3808 -0.3853,3.671 l 1.4766,0.264 C 16.7797,14.6019 16.95,13.2252 16.95,12 Z m -0.3853,3.671 c -0.5056,2.8282 -1.355,5.5883 -1.6063,6.3759 l 1.429,0.456 c 0.2576,-0.8073 1.1307,-3.6416 1.6539,-6.5679 z m 6.9822,-2.2126 c -0.7876,0.2513 -3.5477,1.1007 -6.3759,1.6063 l 0.264,1.4766 c 2.9263,-0.5232 5.7606,-1.3963 6.5679,-1.6539 z M 15.671,15.0647 C 14.3808,15.2954 13.1009,15.45 12,15.45 v 1.5 c 1.2252,0 2.6019,-0.1703 3.935,-0.4087 z M 12,15.45 c -1.1009,0 -2.38077,-0.1546 -3.67103,-0.3853 L 8.06496,16.5413 C 9.39807,16.7797 10.7748,16.95 12,16.95 Z M 8.32897,15.0647 C 5.50076,14.5591 2.74066,13.7097 1.95309,13.4584 l -0.45597,1.429 c 0.80725,0.2576 3.64161,1.1307 6.56784,1.6539 z M 7.05,12 c 0,1.2252 0.17032,2.6019 0.40867,3.935 L 8.93526,15.671 C 8.70456,14.3808 8.55,13.1009 8.55,12 Z m 0.40867,3.935 c 0.52321,2.9263 1.39637,5.7606 1.65394,6.5679 l 1.42899,-0.456 C 10.2903,21.2593 9.44094,18.4992 8.93526,15.671 Z M 9.11261,1.49712 C 8.81867,2.41835 7.711,6.01664 7.25235,9.36461 L 8.73846,9.5682 C 9.17849,6.35621 10.2518,2.8614 10.5416,1.95309 Z M 7.25235,9.36461 C 7.12846,10.269 7.05,11.1681 7.05,12 h 1.5 c 0,-0.7432 0.07052,-1.5708 0.18846,-2.4318 z M 12,9.15 C 10.8421,9.15 9.4871,8.97904 8.13152,8.72886 L 7.85929,10.204 C 9.25697,10.4619 10.7126,10.65 12,10.65 Z M 8.13152,8.72886 C 5.89586,8.31625 3.72921,7.70168 2.57657,7.35205 L 2.14116,8.78747 C 3.3175,9.14428 5.54457,9.77675 7.85929,10.204 Z M 21.38,7.3695 c 0.0119,-0.0062 0.0265,-0.01231 0.0422,-0.01708 l 0.4354,1.43543 C 21.933,8.76498 22.0039,8.73569 22.0712,8.70074 Z M 1.88425,8.67209 C 1.96322,8.72038 2.04888,8.75948 2.14116,8.78747 L 2.57657,7.35205 C 2.60983,7.36214 2.64048,7.3763 2.66683,7.39242 Z"
         fill="#000000"
         clip-path="url(#clipPath3920)"
         style="fill:#ff6600" /></g></g></svg>
